<svg width="6089" height="3599" viewBox="0 0 6089 3599" fill="none" xmlns="http://www.w3.org/2000/svg">
<rect x="440.215" y="230" width="3894" height="1396" rx="217" fill="white"/>
<rect x="440.215" y="435" width="5035" height="3013" rx="217" fill="white"/>
<path fill-rule="evenodd" clip-rule="evenodd" d="M1951.07 0C1746.8 0 1581.21 165.59 1581.21 369.855C1581.21 387.967 1582.52 405.774 1585.03 423.189C1582.53 436.383 1581.21 450 1581.21 463.923V652C1581.21 771.846 1678.37 869 1798.21 869H5258.21C5378.06 869 5475.21 771.846 5475.21 652V463.923C5475.21 450 5473.9 436.383 5471.4 423.189C5473.91 405.774 5475.21 387.967 5475.21 369.855C5475.21 165.59 5309.63 0 5105.36 0H1951.07Z" fill="white"/>
<path d="M577.427 328.466C264.933 98.9806 79.9832 505.78 26.57 737.866C-159.999 1815.9 724.445 1924.84 994.68 1802.35C1264.92 1679.87 968.045 615.323 577.427 328.466Z" fill="#C2DADE"/>
<path d="M941.466 796.359C870.074 586.78 587.635 615.835 455.339 656.56C-125.114 874.247 316.224 1314.9 520.021 1405.59C723.819 1496.27 1030.71 1058.33 941.466 796.359Z" stroke="#2A5866" stroke-width="9"/>
<path d="M5266.76 1162.58C5128.12 1161.86 5114.77 1212.92 5080.9 1308.22C5047.03 1403.52 4824.1 1461.16 4619.34 1350.82C4414.57 1240.48 4335.02 987.66 4553.96 879.042C4772.91 770.424 4906.03 736.485 5006.86 509.582C5107.7 282.679 5393.57 326.929 5636.94 613.618C5880.32 900.307 5405.4 1163.3 5266.76 1162.58Z" fill="#E9D4A2"/>
<path d="M5346.71 219C5305.21 140 5222.17 204 5132.21 204C5042.26 204 5045.33 88.5648 4956.71 140C4868.1 191.435 4875.62 310.796 4936.03 397.274C4996.44 483.752 5038.04 516.289 5039.05 666.551C5040.07 816.813 5147.15 813.553 5276.05 655.303C5404.96 497.053 5388.21 298 5346.71 219Z" stroke="#2A5866" stroke-width="9"/>
<path d="M4934.24 2350.96C4715.22 2662.84 4833.68 3151.06 5095.23 3400.52C5356.78 3649.97 5525.01 3650.15 5792.49 3478.04C6059.98 3305.92 6210.68 2853.02 5961.48 2791.58C5712.28 2730.13 5594.54 2740.68 5454.59 2535.13C5314.64 2329.58 5153.26 2039.09 4934.24 2350.96Z" fill="#E5AA9E"/>
<path d="M310.598 2573.19C294.712 2696.15 402.703 2818.83 515.773 2851.1C628.843 2883.37 677.32 2857.96 728.313 2767.92C779.307 2677.88 754.178 2524.64 673.112 2544.65C592.047 2564.66 559.734 2585.52 488.326 2547.5C416.917 2509.47 326.485 2450.23 310.598 2573.19Z" stroke="#E5AA9E" stroke-width="8"/>
</svg>
